<?xml version="1.0" encoding="utf-8"?>
<!-- Generator: Adobe Illustrator 25.3.1, SVG Export Plug-In . SVG Version: 6.00 Build 0)  -->
<svg version="1.1" id="Capa_1" xmlns="http://www.w3.org/2000/svg" xmlns:xlink="http://www.w3.org/1999/xlink" x="0px" y="0px"
	 viewBox="0 0 56 55" style="enable-background:new 0 0 56 55;" xml:space="preserve">
<style type="text/css">
	.st0{fill:#F7F7F7;}
	.st1{fill:#222222;}
	.st2{fill:#EF3829;}
</style>
<g id="Grupo_4388">
	<circle id="Elipse_430" class="st0" cx="28.1" cy="27.59" r="17.5"/>
	<path id="Trazado_5771" class="st1" d="M28.1,45.59c-9.94,0-18-8.06-18-18s8.06-18,18-18s18,8.06,18,18
		C46.07,37.52,38.03,45.56,28.1,45.59z M28.1,10.59c-9.39,0-17,7.61-17,17s7.61,17,17,17s17-7.61,17-17
		c0.01-9.38-7.59-16.99-16.97-17C28.12,10.59,28.11,10.59,28.1,10.59z"/>
</g>
<g id="Group_209_2_" transform="translate(17.03 18.566)">
	<g id="Path_86_2_">
		<g id="Grupo_4389">
			<path id="Trazado_5772" class="st2" d="M6.5,18.69v-0.2c-0.03-0.4,0.22-0.77,0.6-0.9c0.48-0.14,0.94-0.3,1.4-0.5
				c0.41-0.11,0.69-0.48,0.7-0.9v-6C9.19,9.8,8.96,9.45,8.6,9.29l-1.5-0.5c-0.38-0.13-0.63-0.5-0.6-0.9v-0.2c0-0.5,0.4-0.9,0.9-0.9
				h0H12c0.5,0,0.9,0.4,0.9,0.9l0,0v8.5c0.01,0.39,0.24,0.74,0.6,0.9c0.6,0.2,1.1,0.4,1.5,0.5c0.41,0.11,0.69,0.48,0.7,0.9v0.2
				c0,0.5-0.4,0.9-0.9,0.9H7.5c-0.51,0.04-0.95-0.33-1-0.84C6.5,18.73,6.5,18.71,6.5,18.69z"/>
		</g>
	</g>
</g>
<g id="Group_210_2_" transform="translate(18.566 12.07)">
	<g id="Ellipse_4_2_">
		<g id="Grupo_4390">
			<circle id="Elipse_431" class="st2" cx="9.6" cy="7.69" r="2.7"/>
		</g>
	</g>
</g>
</svg>
